SplineFontDB: 3.2
FontName: HippopotamusApocalypse
FullName: Hippopotamus Apocalypse
FamilyName: Hippopotamus Apocalypse
Weight: Book
Copyright: Typeface by Chequered Ink. (c) 2018. All Rights Reserved
Version: 1.00;March 6, 2018;FontCreator 11.5.0.2421 64-bit
ItalicAngle: 0
UnderlinePosition: -292
UnderlineWidth: 150
Ascent: 1638
Descent: 410
InvalidEm: 0
sfntRevision: 0x00010000
LayerCount: 2
Layer: 0 1 "Back" 1
Layer: 1 1 "Fore" 0
XUID: [1021 678 1853240688 19926]
StyleMap: 0x0040
FSType: 0
OS2Version: 3
OS2_WeightWidthSlopeOnly: 0
OS2_UseTypoMetrics: 0
CreationTime: 1515021889
ModificationTime: 1699857090
PfmFamily: 17
TTFWeight: 400
TTFWidth: 5
LineGap: 222
VLineGap: 0
Panose: 2 0 5 0 0 0 0 0 0 0
OS2TypoAscent: 1434
OS2TypoAOffset: 0
OS2TypoDescent: -410
OS2TypoDOffset: 0
OS2TypoLinegap: 205
OS2WinAscent: 1716
OS2WinAOffset: 0
OS2WinDescent: 418
OS2WinDOffset: 0
HheadAscent: 1716
HheadAOffset: 0
HheadDescent: -418
HheadDOffset: 0
OS2SubXSize: 1434
OS2SubYSize: 1331
OS2SubXOff: 0
OS2SubYOff: 283
OS2SupXSize: 1434
OS2SupYSize: 1331
OS2SupXOff: 0
OS2SupYOff: 977
OS2StrikeYSize: 102
OS2StrikeYPos: 530
OS2CapHeight: 1434
OS2XHeight: 1024
OS2Vendor: 'HL  '
OS2CodePages: 00000001.00000000
OS2UnicodeRanges: 00000001.00000000.00000000.00000000
Lookup: 258 0 0 "'kern' Horizontal Kerning in Latin lookup 0" { "'kern' Horizontal Kerning in Latin lookup 0 subtable"  } ['kern' ('latn' <'dflt' > ) ]
DEI: 91125
KernClass2: 8 6 "'kern' Horizontal Kerning in Latin lookup 0 subtable"
 3 A a
 3 F f
 3 L l
 3 P p
 3 T t
 7 V W v w
 3 Y y
 3 T t
 7 V W v w
 3 Y y
 3 A a
 3 J j
 0 {} 0 {} 0 {} 0 {} 0 {} 0 {} 0 {} -104 {} -106 {} -205 {} 0 {} 0 {} 0 {} 0 {} 0 {} 0 {} -202 {} -195 {} 0 {} -301 {} -217 {} -255 {} 0 {} 0 {} 0 {} 0 {} 0 {} 0 {} -133 {} 0 {} 0 {} 0 {} 0 {} 0 {} -106 {} -305 {} 0 {} 0 {} 0 {} 0 {} -109 {} -175 {} 0 {} 0 {} 0 {} 0 {} -205 {} -255 {}
TtTable: prep
SVTCA[y-axis]
MPPEM
PUSHW_1
 200
GT
IF
PUSHB_2
 1
 1
INSTCTRL
EIF
PUSHB_1
 1
PUSHW_2
 2048
 2048
MUL
WCVTF

StartChar: .notdef
Encoding: 65536 -1 0
Width: 1501
GlyphClass: 2
Flags: W
LayerCount: 2
Fore
SplineSet
676 1396 m 2,0,-1
 708 1396 l 2,1,2
 1043 1396 1043 1396 1272 1096 c 1,3,4
 1396 909 1396 909 1396 716 c 2,5,-1
 1396 676 l 2,6,7
 1396 362 1396 362 1108 128 c 1,8,9
 914 0 914 0 720 0 c 2,10,-1
 688 0 l 2,11,12
 353 0 353 0 124 300 c 1,13,14
 0 487 0 487 0 680 c 2,15,-1
 0 720 l 2,16,17
 0 1034 0 1034 288 1268 c 1,18,19
 482 1396 482 1396 676 1396 c 2,0,-1
96 880 m 1,20,-1
 100 880 l 1,21,22
 788 876 788 876 1184 876 c 2,23,-1
 1300 876 l 1,24,25
 1206 1140 1206 1140 1008 1240 c 1,26,27
 870 1324 870 1324 712 1324 c 2,28,-1
 680 1324 l 2,29,30
 412 1324 412 1324 212 1096 c 1,31,32
 124 983 124 983 96 880 c 1,20,-1
664 1252 m 1,33,-1
 692 1224 l 1,34,-1
 724 1252 l 2,35,36
 729 1252 729 1252 756 1220 c 1,37,38
 750 1220 750 1220 728 1192 c 1,39,-1
 728 1188 l 2,40,41
 728 1182 728 1182 756 1160 c 1,42,43
 756 1166 756 1166 784 1188 c 1,44,-1
 788 1188 l 2,45,46
 794 1188 794 1188 816 1160 c 1,47,-1
 816 1156 l 2,48,49
 816 1150 816 1150 788 1128 c 1,50,-1
 784 1128 l 1,51,-1
 752 1156 l 1,52,-1
 728 1128 l 1,53,54
 756 1098 756 1098 756 1092 c 1,55,-1
 724 1064 l 1,56,-1
 692 1092 l 1,57,-1
 660 1064 l 1,58,-1
 632 1096 l 1,59,-1
 660 1128 l 1,60,61
 635 1156 635 1156 632 1156 c 2,62,-1
 600 1128 l 2,63,64
 595 1128 595 1128 568 1160 c 1,65,-1
 600 1188 l 1,66,-1
 632 1160 l 1,67,-1
 660 1192 l 1,68,69
 654 1192 654 1192 632 1220 c 0,70,71
 632 1225 632 1225 664 1252 c 1,33,-1
692 1220 m 1,72,-1
 664 1188 l 1,73,-1
 696 1160 l 1,74,75
 696 1162 696 1162 720 1188 c 1,76,-1
 720 1192 l 2,77,78
 720 1198 720 1198 692 1220 c 1,72,-1
692 1156 m 1,79,-1
 664 1124 l 1,80,81
 690 1100 690 1100 692 1100 c 0,82,83
 698 1100 698 1100 720 1128 c 0,84,85
 720 1134 720 1134 692 1156 c 1,79,-1
320 1008 m 2,86,-1
 332 1008 l 1,87,-1
 360 1000 l 1,88,-1
 360 992 l 1,89,-1
 352 980 l 1,90,91
 330 984 330 984 320 984 c 0,92,93
 304 980 304 980 304 960 c 0,94,95
 304 943 304 943 324 936 c 1,96,97
 350 944 350 944 352 944 c 2,98,-1
 364 928 l 1,99,100
 351 918 351 918 328 912 c 1,101,102
 276 921 276 921 276 960 c 1,103,104
 284 1008 284 1008 320 1008 c 2,86,-1
372 1008 m 1,105,-1
 392 1008 l 2,106,107
 400 1007 400 1007 400 1000 c 2,108,-1
 400 972 l 1,109,-1
 428 972 l 1,110,-1
 428 1008 l 1,111,-1
 456 1008 l 1,112,-1
 456 916 l 1,113,-1
 428 916 l 1,114,-1
 428 948 l 1,115,-1
 400 948 l 1,116,-1
 400 916 l 1,117,-1
 372 916 l 1,118,-1
 372 1008 l 1,105,-1
476 1008 m 2,119,-1
 540 1008 l 1,120,-1
 540 984 l 1,121,-1
 496 984 l 1,122,-1
 496 972 l 1,123,-1
 540 972 l 1,124,-1
 540 956 l 2,125,126
 540 948 540 948 532 948 c 2,127,-1
 524 952 l 1,128,-1
 516 948 l 1,129,-1
 496 952 l 1,130,-1
 496 940 l 1,131,-1
 536 940 l 2,132,133
 544 939 544 939 544 932 c 2,134,-1
 544 916 l 1,135,-1
 468 916 l 1,136,-1
 468 1000 l 2,137,138
 469 1008 469 1008 476 1008 c 2,119,-1
600 1008 m 1,139,140
 652 1001 652 1001 652 964 c 1,141,-1
 644 932 l 1,142,143
 652 931 652 931 652 924 c 0,144,145
 652 918 652 918 636 908 c 1,146,147
 626 916 626 916 624 916 c 0,148,149
 602 912 602 912 592 912 c 0,150,151
 559 912 559 912 548 960 c 1,152,153
 548 1008 548 1008 600 1008 c 1,139,140
668 1008 m 2,154,-1
 680 1008 l 2,155,156
 688 1007 688 1007 688 1000 c 2,157,-1
 688 960 l 2,158,159
 691 936 691 936 700 936 c 2,160,-1
 708 936 l 2,161,162
 714 936 714 936 720 948 c 1,163,-1
 720 1000 l 1,164,-1
 724 1008 l 1,165,-1
 732 1004 l 1,166,-1
 736 1004 l 1,167,-1
 744 1008 l 1,168,-1
 748 1000 l 1,169,-1
 748 952 l 1,170,171
 743 912 743 912 708 912 c 2,172,-1
 700 912 l 2,173,174
 664 912 664 912 660 960 c 1,175,-1
 660 1000 l 2,176,177
 661 1008 661 1008 668 1008 c 2,154,-1
764 1008 m 1,178,-1
 772 1008 l 1,179,-1
 796 1004 l 1,180,181
 804 1008 804 1008 808 1008 c 0,182,183
 816 1004 816 1004 820 1004 c 0,184,185
 828 1008 828 1008 832 1008 c 1,186,-1
 832 988 l 2,187,188
 832 980 832 980 824 980 c 0,189,190
 817 984 817 984 808 984 c 1,191,-1
 808 980 l 1,192,-1
 800 984 l 1,193,-1
 788 984 l 1,194,-1
 788 972 l 1,195,-1
 832 972 l 1,196,-1
 832 956 l 2,197,198
 832 948 832 948 824 948 c 2,199,-1
 788 948 l 1,200,-1
 788 936 l 1,201,-1
 800 936 l 2,202,203
 804 936 804 936 804 940 c 1,204,-1
 812 936 l 1,205,-1
 820 936 l 2,206,207
 824 936 824 936 824 940 c 1,208,209
 832 936 832 936 836 936 c 1,210,-1
 836 916 l 1,211,-1
 816 916 l 1,212,-1
 792 912 l 1,213,214
 785 916 785 916 772 916 c 1,215,-1
 772 912 l 1,216,217
 764 916 764 916 760 916 c 1,218,-1
 760 988 l 1,219,-1
 764 1008 l 1,178,-1
852 1008 m 2,220,-1
 880 1004 l 1,221,-1
 880 1008 l 1,222,223
 928 1001 928 1001 928 976 c 0,224,225
 925 948 925 948 908 948 c 1,226,-1
 932 916 l 1,227,-1
 924 912 l 1,228,-1
 908 912 l 2,229,230
 905 912 905 912 876 944 c 1,231,-1
 872 944 l 1,232,-1
 872 928 l 1,233,-1
 876 920 l 1,234,-1
 868 916 l 1,235,-1
 844 916 l 1,236,-1
 844 920 l 2,237,238
 844 928 844 928 848 928 c 1,239,-1
 844 956 l 1,240,-1
 848 996 l 1,241,-1
 844 996 l 1,242,243
 848 1008 848 1008 852 1008 c 2,220,-1
940 1004 m 1,244,-1
 1012 1004 l 1,245,-1
 1012 988 l 2,246,247
 1012 980 1012 980 1004 980 c 2,248,-1
 968 980 l 1,249,-1
 968 972 l 1,250,-1
 1008 972 l 1,251,-1
 1008 948 l 1,252,-1
 968 948 l 1,253,-1
 968 936 l 1,254,-1
 1012 936 l 1,255,-1
 1012 920 l 2,256,257
 1012 912 1012 912 1004 912 c 2,258,-1
 948 912 l 2,259,260
 940 912 940 912 940 920 c 2,261,-1
 940 1004 l 1,244,-1
1024 1004 m 1,262,-1
 1072 1004 l 2,263,264
 1108 1004 1108 1004 1112 956 c 0,265,266
 1112 914 1112 914 1048 912 c 2,267,-1
 1032 912 l 2,268,269
 1024 912 1024 912 1024 920 c 2,270,-1
 1024 1004 l 1,262,-1
576 956 m 1,271,272
 582 936 582 936 604 936 c 1,273,274
 624 942 624 942 624 964 c 1,275,276
 616 982 616 982 608 984 c 2,277,-1
 592 984 l 1,278,279
 576 978 576 978 576 956 c 1,271,272
872 984 m 1,280,-1
 872 964 l 1,281,-1
 892 964 l 2,282,283
 900 964 900 964 900 972 c 2,284,-1
 900 976 l 2,285,286
 900 984 900 984 892 984 c 2,287,-1
 872 984 l 1,280,-1
1052 980 m 1,288,-1
 1052 936 l 1,289,-1
 1056 936 l 2,290,291
 1078 936 1078 936 1084 952 c 1,292,-1
 1084 968 l 2,293,294
 1084 974 1084 974 1072 980 c 1,295,-1
 1052 980 l 1,288,-1
208 680 m 2,296,-1
 208 672 l 1,297,298
 221 604 221 604 272 604 c 2,299,-1
 312 604 l 1,300,301
 332 614 332 614 332 636 c 2,302,-1
 332 652 l 1,303,304
 316 652 316 652 316 672 c 0,305,306
 316 712 316 712 392 712 c 1,307,308
 392 717 392 717 408 720 c 1,309,-1
 408 716 l 1,310,311
 333 468 333 468 312 464 c 1,312,-1
 304 464 l 2,313,314
 295 464 295 464 292 484 c 0,315,316
 292 491 292 491 312 528 c 1,317,318
 292 564 292 564 260 564 c 2,319,-1
 248 564 l 1,320,321
 184 555 184 555 184 500 c 2,322,-1
 184 492 l 2,323,324
 184 434 184 434 256 408 c 0,325,326
 277 404 277 404 296 404 c 2,327,-1
 312 404 l 2,328,329
 437 404 437 404 476 576 c 1,330,331
 500 629 500 629 560 804 c 1,332,333
 541 816 541 816 508 816 c 2,334,-1
 484 816 l 2,335,336
 453 816 453 816 424 780 c 1,337,338
 373 758 373 758 268 744 c 1,339,340
 208 723 208 723 208 680 c 2,296,-1
796 460 m 1,341,-1
 792 468 l 1,342,-1
 792 480 l 2,343,344
 792 499 792 499 824 616 c 1,345,346
 814 656 814 656 780 656 c 2,347,-1
 752 656 l 2,348,349
 735 656 735 656 688 636 c 1,350,-1
 688 644 l 1,351,-1
 692 652 l 1,352,353
 676 660 676 660 648 660 c 2,354,-1
 608 660 l 2,355,356
 573 660 573 660 560 616 c 0,357,358
 496 418 496 418 496 408 c 1,359,360
 520 396 520 396 564 396 c 0,361,362
 624 396 624 396 624 456 c 1,363,364
 665 588 665 588 680 588 c 0,365,366
 692 588 692 588 692 592 c 1,367,368
 708 586 708 586 708 580 c 0,369,370
 672 487 672 487 672 456 c 2,371,-1
 672 448 l 2,372,373
 672 409 672 409 728 400 c 1,374,375
 768 400 768 400 836 436 c 1,376,-1
 828 412 l 1,377,378
 844 396 844 396 884 396 c 0,379,380
 952 396 952 396 952 428 c 1,381,382
 974 588 974 588 1028 588 c 2,383,-1
 1040 588 l 2,384,385
 1048 587 1048 587 1048 580 c 2,386,-1
 1048 576 l 2,387,388
 1048 549 1048 549 996 524 c 1,389,-1
 992 504 l 1,390,391
 992 400 992 400 1076 400 c 0,392,393
 1163 400 1163 400 1220 508 c 1,394,-1
 1204 520 l 1,395,-1
 1196 520 l 1,396,397
 1161 460 1161 460 1116 460 c 2,398,-1
 1108 460 l 1,399,400
 1084 470 1084 470 1084 496 c 2,401,-1
 1084 512 l 1,402,-1
 1140 548 l 1,403,404
 1160 585 1160 585 1160 604 c 2,405,-1
 1160 612 l 2,406,407
 1160 653 1160 653 1100 660 c 0,408,409
 1084 660 1084 660 1016 636 c 1,410,411
 1016 640 1016 640 1012 640 c 1,412,413
 1072 794 1072 794 1072 800 c 1,414,415
 1053 812 1053 812 1012 812 c 2,416,-1
 976 812 l 2,417,418
 946 812 946 812 936 744 c 1,419,420
 925 732 925 732 856 508 c 1,421,422
 811 460 811 460 796 460 c 1,341,-1
208 312 m 1,423,-1
 208 308 l 1,424,425
 411 72 411 72 684 72 c 2,426,-1
 716 72 l 2,427,428
 967 72 967 72 1164 276 c 0,429,430
 1188 304 1188 304 1188 308 c 0,431,432
 686 312 686 312 440 312 c 2,433,-1
 208 312 l 1,423,-1
516 244 m 1,434,-1
 556 244 l 1,435,-1
 556 236 l 1,436,-1
 524 236 l 1,437,-1
 524 216 l 1,438,-1
 556 216 l 1,439,-1
 556 208 l 1,440,-1
 524 208 l 1,441,-1
 524 192 l 1,442,-1
 552 192 l 2,443,444
 560 191 560 191 560 184 c 1,445,-1
 516 184 l 1,446,-1
 516 244 l 1,434,-1
580 244 m 1,447,-1
 600 244 l 2,448,449
 606 244 606 244 612 232 c 1,450,-1
 608 232 l 1,451,-1
 584 236 l 2,452,453
 576 235 576 235 576 228 c 2,454,-1
 576 220 l 1,455,456
 616 216 616 216 616 200 c 1,457,458
 610 180 610 180 588 180 c 1,459,460
 564 188 564 188 564 196 c 1,461,-1
 572 200 l 1,462,463
 572 191 572 191 592 188 c 1,464,-1
 608 196 l 1,465,466
 608 208 608 208 568 216 c 1,467,-1
 568 232 l 2,468,469
 568 238 568 238 580 244 c 1,447,-1
616 244 m 1,470,-1
 664 244 l 1,471,-1
 664 236 l 1,472,-1
 644 236 l 1,473,-1
 644 184 l 1,474,-1
 636 184 l 1,475,-1
 636 236 l 1,476,-1
 616 236 l 1,477,-1
 616 244 l 1,470,-1
716 244 m 0,478,479
 728 244 728 244 740 228 c 1,480,481
 740 209 740 209 700 204 c 1,482,-1
 696 196 l 1,483,484
 697 188 697 188 704 188 c 2,485,-1
 736 188 l 1,486,-1
 736 180 l 1,487,-1
 708 180 l 1,488,-1
 688 184 l 1,489,-1
 688 188 l 2,490,491
 688 216 688 216 716 216 c 2,492,-1
 728 216 l 1,493,494
 728 220 728 220 732 228 c 1,495,-1
 720 236 l 1,496,-1
 708 236 l 1,497,-1
 692 224 l 1,498,-1
 692 232 l 1,499,500
 696 244 696 244 716 244 c 0,478,479
772 244 m 2,501,-1
 776 244 l 2,502,503
 782 244 782 244 792 228 c 1,504,-1
 792 196 l 1,505,506
 786 180 786 180 764 180 c 1,507,508
 744 186 744 186 744 208 c 2,509,-1
 744 216 l 2,510,511
 744 244 744 244 772 244 c 2,501,-1
820 244 m 1,512,-1
 820 188 l 1,513,-1
 832 188 l 1,514,515
 832 180 832 180 824 180 c 2,516,-1
 804 180 l 1,517,-1
 804 188 l 1,518,-1
 812 188 l 1,519,-1
 812 232 l 1,520,-1
 804 232 l 1,521,-1
 804 240 l 1,522,523
 813 240 813 240 820 244 c 1,512,-1
840 244 m 1,524,-1
 876 244 l 2,525,526
 884 243 884 243 884 236 c 1,527,-1
 848 236 l 1,528,-1
 848 220 l 1,529,-1
 872 220 l 2,530,531
 880 218 880 218 888 200 c 1,532,533
 882 180 882 180 860 180 c 0,534,535
 840 183 840 183 840 192 c 2,536,-1
 840 200 l 1,537,-1
 856 188 l 1,538,-1
 868 188 l 2,539,540
 874 188 874 188 880 200 c 0,541,542
 880 206 880 206 868 212 c 1,543,-1
 840 212 l 1,544,-1
 840 244 l 1,524,-1
752 224 m 1,545,-1
 752 200 l 2,546,547
 752 194 752 194 764 188 c 1,548,-1
 772 188 l 2,549,550
 778 188 778 188 784 200 c 1,551,-1
 784 224 l 2,552,553
 784 230 784 230 772 236 c 1,554,-1
 764 236 l 2,555,556
 758 236 758 236 752 224 c 1,545,-1
EndSplineSet
EndChar

StartChar: exclam
Encoding: 33 33 4
Width: 405
GlyphClass: 2
Flags: W
LayerCount: 2
Fore
SplineSet
10 305 m 1,0,-1
 314 297 l 1,1,-1
 303 -20 l 1,2,-1
 4 -5 l 1,3,-1
 10 305 l 1,0,-1
10 1428 m 1,4,-1
 314 1420 l 1,5,-1
 297 436 l 1,6,-1
 -2 451 l 1,7,-1
 10 1428 l 1,4,-1
EndSplineSet
EndChar

StartChar: quotedbl
Encoding: 34 34 5
Width: 812
GlyphClass: 2
Flags: W
LayerCount: 2
Fore
SplineSet
9 1439 m 1,0,-1
 313 1411 l 1,1,-1
 302 874 l 1,2,-1
 3 909 l 1,3,-1
 9 1439 l 1,0,-1
419 1427 m 1,4,-1
 723 1399 l 1,5,-1
 712 862 l 1,6,-1
 413 897 l 1,7,-1
 419 1427 l 1,4,-1
EndSplineSet
EndChar

StartChar: numbersign
Encoding: 35 35 6
Width: 1117
GlyphClass: 2
Flags: W
LayerCount: 2
Fore
SplineSet
146 611 m 1,0,-1
 145 767 l 1,1,-1
 0 767 l 1,2,-1
 9 1086 l 1,3,-1
 144 1084 l 1,4,-1
 142 1425 l 1,5,-1
 464 1430 l 1,6,-1
 459 1079 l 1,7,-1
 578 1077 l 1,8,-1
 578 1396 l 1,9,-1
 897 1416 l 1,10,-1
 892 1072 l 1,11,-1
 1011 1070 l 1,12,-1
 978 769 l 1,13,-1
 887 769 l 1,14,-1
 884 598 l 1,15,-1
 1022 596 l 1,16,-1
 989 296 l 1,17,-1
 879 296 l 1,18,-1
 874 -38 l 1,19,-1
 578 -27 l 1,20,-1
 578 295 l 1,21,-1
 449 295 l 1,22,-1
 445 -9 l 1,23,-1
 149 -19 l 1,24,-1
 147 294 l 1,25,-1
 11 294 l 1,26,-1
 20 613 l 1,27,-1
 146 611 l 1,0,-1
455 768 m 1,28,-1
 453 606 l 1,29,-1
 578 604 l 1,30,-1
 578 768 l 1,31,-1
 455 768 l 1,28,-1
EndSplineSet
EndChar

StartChar: dollar
Encoding: 36 36 7
Width: 1225
GlyphClass: 2
Flags: W
LayerCount: 2
Fore
SplineSet
723 528 m 1,0,-1
 722 393 l 1,1,-1
 820 441 l 1,2,-1
 820 506 l 1,3,-1
 723 528 l 1,0,-1
412 1020 m 1,4,-1
 297 952 l 1,5,-1
 412 920 l 1,6,-1
 412 1020 l 1,4,-1
410 598 m 1,7,-1
 11 687 l 1,8,-1
 -6 1152 l 1,9,-1
 415 1387 l 1,10,-1
 416 1616 l 1,11,-1
 730 1621 l 1,12,-1
 728 1377 l 1,13,-1
 1111 1157 l 1,14,-1
 1114 921 l 1,15,-1
 816 908 l 1,16,-1
 815 973 l 1,17,-1
 726 1020 l 1,18,-1
 725 833 l 1,19,-1
 1123 723 l 1,20,-1
 1123 224 l 1,21,-1
 719 28 l 1,22,-1
 718 -157 l 1,23,-1
 405 -208 l 1,24,-1
 406 35 l 1,25,-1
 -6 264 l 1,26,-1
 -2 554 l 1,27,-1
 297 536 l 1,28,-1
 296 460 l 1,29,-1
 409 397 l 1,30,-1
 410 598 l 1,7,-1
EndSplineSet
EndChar

StartChar: percent
Encoding: 37 37 8
Width: 1049
GlyphClass: 2
Flags: W
LayerCount: 2
Fore
SplineSet
687 1435 m 1,0,-1
 1049 1435 l 1,1,-1
 246 -14 l 1,2,-1
 -94 -13 l 1,3,-1
 687 1435 l 1,0,-1
9 1439 m 1,4,-1
 313 1431 l 1,5,-1
 302 1114 l 1,6,-1
 3 1129 l 1,7,-1
 9 1439 l 1,4,-1
664 322 m 1,8,-1
 968 314 l 1,9,-1
 957 -3 l 1,10,-1
 658 12 l 1,11,-1
 664 322 l 1,8,-1
EndSplineSet
EndChar

StartChar: ampersand
Encoding: 38 38 9
Width: 1211
GlyphClass: 2
Flags: W
LayerCount: 2
Fore
SplineSet
806 93 m 1,0,-1
 548 -50 l 1,1,-1
 -6 224 l 1,2,-1
 -6 637 l 1,3,-1
 155 717 l 1,4,-1
 -2 787 l 1,5,-1
 -6 1152 l 1,6,-1
 554 1471 l 1,7,-1
 1101 1157 l 1,8,-1
 1104 921 l 1,9,-1
 806 908 l 1,10,-1
 805 973 l 1,11,-1
 551 1108 l 1,12,-1
 337 970 l 1,13,-1
 670 790 l 1,14,-1
 670 636 l 1,15,-1
 287 441 l 1,16,-1
 549 314 l 1,17,-1
 806 457 l 1,18,-1
 806 795 l 1,19,-1
 1108 824 l 1,20,-1
 1103 14 l 1,21,-1
 806 -3 l 1,22,-1
 806 93 l 1,0,-1
EndSplineSet
EndChar

StartChar: quotesingle
Encoding: 39 39 10
Width: 405
GlyphClass: 2
Flags: W
LayerCount: 2
Fore
SplineSet
9 1439 m 1,0,-1
 313 1411 l 1,1,-1
 302 874 l 1,2,-1
 3 909 l 1,3,-1
 9 1439 l 1,0,-1
EndSplineSet
EndChar

StartChar: parenleft
Encoding: 40 40 11
Width: 664
GlyphClass: 2
Flags: W
LayerCount: 2
Fore
SplineSet
558 -150 m 1,0,-1
 -6 124 l 1,1,-1
 -6 1252 l 1,2,-1
 564 1571 l 1,3,-1
 561 1208 l 1,4,-1
 297 1060 l 1,5,-1
 297 341 l 1,6,-1
 559 214 l 1,7,-1
 558 -150 l 1,0,-1
EndSplineSet
EndChar

StartChar: parenright
Encoding: 41 41 12
Width: 664
GlyphClass: 2
Flags: W
LayerCount: 2
Fore
SplineSet
0 1571 m 1,0,-1
 564 1297 l 1,1,-1
 564 169 l 1,2,-1
 -6 -150 l 1,3,-1
 -3 213 l 1,4,-1
 261 361 l 1,5,-1
 261 1080 l 1,6,-1
 -1 1207 l 1,7,-1
 0 1571 l 1,0,-1
EndSplineSet
EndChar

StartChar: asterisk
Encoding: 42 42 13
Width: 881
GlyphClass: 2
Flags: W
LayerCount: 2
Fore
SplineSet
353 846 m 1,0,-1
 160 704 l 1,1,-1
 -19 968 l 1,2,-1
 172 1102 l 1,3,-1
 34 1298 l 1,4,-1
 294 1453 l 1,5,-1
 423 1279 l 1,6,-1
 629 1424 l 1,7,-1
 783 1164 l 1,8,-1
 605 1032 l 1,9,-1
 755 830 l 1,10,-1
 490 651 l 1,11,-1
 353 846 l 1,0,-1
EndSplineSet
EndChar

StartChar: plus
Encoding: 43 43 14
Width: 881
GlyphClass: 2
Flags: W
LayerCount: 2
Fore
SplineSet
235 522 m 1,0,-1
 -5 516 l 1,1,-1
 1 835 l 1,2,-1
 234 835 l 1,3,-1
 234 1075 l 1,4,-1
 536 1052 l 1,5,-1
 541 836 l 1,6,-1
 793 836 l 1,7,-1
 770 534 l 1,8,-1
 548 529 l 1,9,-1
 554 277 l 1,10,-1
 235 283 l 1,11,-1
 235 522 l 1,0,-1
EndSplineSet
EndChar

StartChar: comma
Encoding: 44 44 15
Width: 405
GlyphClass: 2
Flags: W
LayerCount: 2
Fore
SplineSet
9 305 m 1,0,-1
 313 277 l 1,1,-1
 302 -260 l 1,2,-1
 3 -225 l 1,3,-1
 9 305 l 1,0,-1
EndSplineSet
EndChar

StartChar: hyphen
Encoding: 45 45 16
AltUni2: 0000ad.ffffffff.0 0000ad.ffffffff.0
Width: 778
GlyphClass: 2
Flags: W
LayerCount: 2
Fore
SplineSet
1 835 m 1,0,-1
 696 864 l 1,1,-1
 673 562 l 1,2,-1
 -5 516 l 1,3,-1
 1 835 l 1,0,-1
EndSplineSet
EndChar

StartChar: period
Encoding: 46 46 17
Width: 405
GlyphClass: 2
Flags: W
LayerCount: 2
Fore
SplineSet
9 305 m 1,0,-1
 313 297 l 1,1,-1
 302 -20 l 1,2,-1
 3 -5 l 1,3,-1
 9 305 l 1,0,-1
EndSplineSet
EndChar

StartChar: slash
Encoding: 47 47 18
Width: 1049
GlyphClass: 2
Flags: W
LayerCount: 2
Fore
SplineSet
687 1435 m 1,0,-1
 1049 1435 l 1,1,-1
 246 -14 l 1,2,-1
 -94 -13 l 1,3,-1
 687 1435 l 1,0,-1
EndSplineSet
EndChar

StartChar: zero
Encoding: 48 48 19
Width: 1225
GlyphClass: 2
Flags: W
LayerCount: 2
Fore
SplineSet
6 264 m 1,0,-1
 -6 1157 l 1,1,-1
 559 1471 l 1,2,-1
 1123 1197 l 1,3,-1
 1123 269 l 1,4,-1
 553 -50 l 1,5,-1
 6 264 l 1,0,-1
302 458 m 1,6,-1
 556 313 l 1,7,-1
 820 461 l 1,8,-1
 820 980 l 1,9,-1
 558 1107 l 1,10,-1
 296 961 l 1,11,-1
 302 458 l 1,6,-1
EndSplineSet
EndChar

StartChar: one
Encoding: 49 49 20
Width: 405
GlyphClass: 2
Flags: W
LayerCount: 2
Fore
SplineSet
9 1439 m 1,0,-1
 313 1411 l 1,1,-1
 302 -26 l 1,2,-1
 3 9 l 1,3,-1
 9 1439 l 1,0,-1
EndSplineSet
EndChar

StartChar: two
Encoding: 50 50 21
Width: 1225
GlyphClass: 2
Flags: W
LayerCount: 2
Fore
SplineSet
1126 589 m 5,0,-1
 317 408 l 5,1,-1
 317 343 l 5,2,-1
 582 347 l 5,3,-1
 846 351 l 5,4,-1
 968 355 l 5,5,-1
 1138 357 l 5,6,-1
 1142 53 l 5,7,-1
 582 51 l 5,8,-1
 20 51 l 5,9,-1
 14 625 l 5,10,-1
 840 854 l 5,11,-1
 840 862 l 5,12,-1
 576 1010 l 5,13,-1
 322 875 l 5,14,-1
 321 810 l 5,15,-1
 23 823 l 5,16,-1
 26 1059 l 5,17,-1
 573 1373 l 5,18,-1
 1143 1054 l 5,19,-1
 1126 589 l 5,0,-1
EndSplineSet
EndChar

StartChar: three
Encoding: 51 51 22
Width: 1211
GlyphClass: 2
Flags: W
LayerCount: 2
Fore
SplineSet
1113 637 m 1,0,-1
 1113 224 l 1,1,-1
 559 -50 l 1,2,-1
 -6 264 l 1,3,-1
 -2 554 l 1,4,-1
 297 536 l 1,5,-1
 296 460 l 1,6,-1
 558 314 l 1,7,-1
 820 441 l 1,8,-1
 437 636 l 1,9,-1
 437 790 l 1,10,-1
 770 970 l 1,11,-1
 556 1108 l 1,12,-1
 302 973 l 1,13,-1
 301 908 l 1,14,-1
 3 921 l 1,15,-1
 6 1157 l 1,16,-1
 553 1471 l 1,17,-1
 1113 1152 l 1,18,-1
 1109 787 l 1,19,-1
 952 717 l 1,20,-1
 1113 637 l 1,0,-1
EndSplineSet
EndChar

StartChar: four
Encoding: 52 52 23
Width: 1117
GlyphClass: 2
Flags: W
LayerCount: 2
Fore
SplineSet
99 1425 m 1,0,-1
 421 1430 l 1,1,-1
 327 648 l 1,2,-1
 704 658 l 1,3,-1
 704 1413 l 1,4,-1
 1023 1433 l 1,5,-1
 1000 -21 l 1,6,-1
 704 -10 l 1,7,-1
 704 356 l 1,8,-1
 0 321 l 1,9,-1
 99 1425 l 1,0,-1
EndSplineSet
EndChar

StartChar: five
Encoding: 53 53 24
Width: 1225
GlyphClass: 2
Flags: W
LayerCount: 2
Fore
SplineSet
11 687 m 1,0,-1
 -6 1430 l 1,1,-1
 1117 1429 l 1,2,-1
 1114 971 l 1,3,-1
 816 958 l 1,4,-1
 827 1143 l 1,5,-1
 305 1152 l 1,6,-1
 297 942 l 1,7,-1
 1123 743 l 1,8,-1
 1123 224 l 1,9,-1
 559 -50 l 1,10,-1
 -6 264 l 1,11,-1
 -2 554 l 1,12,-1
 297 536 l 1,13,-1
 296 460 l 1,14,-1
 558 314 l 1,15,-1
 820 441 l 1,16,-1
 820 506 l 1,17,-1
 11 687 l 1,0,-1
EndSplineSet
EndChar

StartChar: six
Encoding: 54 54 25
Width: 1205
GlyphClass: 2
Flags: W
LayerCount: 2
Fore
SplineSet
1113 264 m 1,0,-1
 558 -50 l 1,1,-1
 -6 224 l 1,2,-1
 -6 1152 l 1,3,-1
 564 1471 l 1,4,-1
 1101 1217 l 1,5,-1
 1104 981 l 1,6,-1
 806 958 l 1,7,-1
 805 1023 l 1,8,-1
 561 1108 l 1,9,-1
 297 960 l 1,10,-1
 297 807 l 1,11,-1
 567 958 l 1,12,-1
 1104 704 l 1,13,-1
 1113 264 l 1,0,-1
300 440 m 1,14,-1
 559 314 l 1,15,-1
 829 463 l 1,16,-1
 564 595 l 1,17,-1
 300 447 l 1,18,-1
 300 440 l 1,14,-1
EndSplineSet
EndChar

StartChar: seven
Encoding: 55 55 26
Width: 1049
GlyphClass: 2
Flags: W
LayerCount: 2
Fore
SplineSet
531 1116 m 1,0,-1
 -11 1109 l 1,1,-1
 -5 1428 l 1,2,-1
 1049 1435 l 1,3,-1
 260 -8 l 1,4,-1
 -94 -13 l 1,5,-1
 531 1116 l 1,0,-1
EndSplineSet
EndChar

StartChar: eight
Encoding: 56 56 27
Width: 1225
GlyphClass: 2
Flags: W
LayerCount: 2
Fore
SplineSet
556 879 m 1,0,-1
 820 952 l 1,1,-1
 820 960 l 1,2,-1
 556 1108 l 1,3,-1
 302 949 l 1,4,-1
 556 879 l 1,0,-1
556 564 m 1,5,-1
 297 441 l 1,6,-1
 559 314 l 1,7,-1
 819 459 l 1,8,-1
 556 564 l 1,5,-1
-7 786 m 1,9,-1
 -7 1151 l 1,10,-1
 553 1471 l 1,11,-1
 1123 1152 l 1,12,-1
 1123 776 l 1,13,-1
 989 704 l 1,14,-1
 1122 662 l 1,15,-1
 1122 223 l 1,16,-1
 558 -50 l 1,17,-1
 -6 224 l 1,18,-1
 -6 655 l 1,19,-1
 140 721 l 1,20,-1
 -7 786 l 1,9,-1
EndSplineSet
EndChar

StartChar: nine
Encoding: 57 57 28
Width: 1205
GlyphClass: 2
Flags: W
LayerCount: 2
Fore
SplineSet
-6 1157 m 1,0,-1
 549 1471 l 1,1,-1
 1113 1197 l 1,2,-1
 1113 269 l 1,3,-1
 543 -50 l 1,4,-1
 6 204 l 1,5,-1
 3 440 l 1,6,-1
 301 463 l 1,7,-1
 302 398 l 1,8,-1
 546 313 l 1,9,-1
 810 461 l 1,10,-1
 810 614 l 1,11,-1
 540 463 l 1,12,-1
 3 717 l 1,13,-1
 -6 1157 l 1,0,-1
807 981 m 1,14,-1
 548 1107 l 1,15,-1
 278 958 l 1,16,-1
 543 826 l 1,17,-1
 807 974 l 1,18,-1
 807 981 l 1,14,-1
EndSplineSet
EndChar

StartChar: less
Encoding: 60 60 31
Width: 664
GlyphClass: 2
Flags: W
LayerCount: 2
Fore
SplineSet
558 -150 m 1,0,-1
 -6 124 l 1,1,-1
 -6 1252 l 1,2,-1
 564 1571 l 1,3,-1
 561 1208 l 1,4,-1
 297 1060 l 1,5,-1
 297 341 l 1,6,-1
 559 214 l 1,7,-1
 558 -150 l 1,0,-1
EndSplineSet
EndChar

StartChar: equal
Encoding: 61 61 32
Width: 778
GlyphClass: 2
Flags: W
LayerCount: 2
Fore
SplineSet
7 1051 m 1,0,-1
 702 1080 l 1,1,-1
 679 778 l 1,2,-1
 1 732 l 1,3,-1
 7 1051 l 1,0,-1
-4 658 m 1,4,-1
 691 687 l 1,5,-1
 668 385 l 1,6,-1
 -10 339 l 1,7,-1
 -4 658 l 1,4,-1
EndSplineSet
EndChar

StartChar: greater
Encoding: 62 62 33
Width: 664
GlyphClass: 2
Flags: W
LayerCount: 2
Fore
SplineSet
0 1571 m 1,0,-1
 564 1297 l 1,1,-1
 564 169 l 1,2,-1
 -6 -150 l 1,3,-1
 -3 213 l 1,4,-1
 261 361 l 1,5,-1
 261 1080 l 1,6,-1
 -1 1207 l 1,7,-1
 0 1571 l 1,0,-1
EndSplineSet
EndChar

StartChar: question
Encoding: 63 63 34
Width: 1225
GlyphClass: 2
Flags: W
LayerCount: 2
Fore
SplineSet
-6 461 m 1,0,-1
 -6 723 l 1,1,-1
 820 952 l 1,2,-1
 820 960 l 1,3,-1
 556 1108 l 1,4,-1
 302 973 l 1,5,-1
 301 908 l 1,6,-1
 3 921 l 1,7,-1
 6 1157 l 1,8,-1
 553 1471 l 1,9,-1
 1123 1152 l 1,10,-1
 1106 687 l 1,11,-1
 297 506 l 1,12,-1
 297 445 l 1,13,-1
 -6 461 l 1,0,-1
299 -3 m 1,14,-1
 3 -3 l 1,15,-1
 3 294 l 1,16,-1
 299 304 l 1,17,-1
 299 -3 l 1,14,-1
EndSplineSet
EndChar

StartChar: at
Encoding: 64 64 35
Width: 1225
GlyphClass: 2
Flags: W
LayerCount: 2
Fore
SplineSet
699 881 m 1,0,-1
 820 888 l 1,1,-1
 821 961 l 1,2,-1
 559 1107 l 1,3,-1
 297 980 l 1,4,-1
 297 461 l 1,5,-1
 561 313 l 1,6,-1
 805 398 l 1,7,-1
 806 463 l 1,8,-1
 1104 440 l 1,9,-1
 1101 204 l 1,10,-1
 564 -50 l 1,11,-1
 -6 269 l 1,12,-1
 -6 1197 l 1,13,-1
 558 1471 l 1,14,-1
 1123 1157 l 1,15,-1
 1104 586 l 1,16,-1
 713 570 l 1,17,-1
 715 533 l 1,18,-1
 578 447 l 1,19,-1
 402 516 l 1,20,-1
 396 903 l 1,21,-1
 550 977 l 1,22,-1
 698 903 l 1,23,-1
 699 881 l 1,0,-1
EndSplineSet
EndChar

StartChar: A
Encoding: 65 65 36
Width: 1168
GlyphClass: 2
Flags: W
LayerCount: 2
Fore
SplineSet
330 303 m 1,0,-1
 228 -16 l 1,1,-1
 -97 -2 l 1,2,-1
 372 1451 l 1,3,-1
 735 1449 l 1,4,-1
 1175 6 l 1,5,-1
 856 -11 l 1,6,-1
 758 332 l 1,7,-1
 330 303 l 1,0,-1
432 622 m 1,8,-1
 672 632 l 1,9,-1
 560 1023 l 1,10,-1
 432 622 l 1,8,-1
EndSplineSet
EndChar

StartChar: B
Encoding: 66 66 37
Width: 1208
GlyphClass: 2
Flags: W
LayerCount: 2
Fore
SplineSet
306 547 m 1,0,-1
 305 340 l 1,1,-1
 306 341 l 1,2,-1
 658 356 l 1,3,-1
 822 434 l 1,4,-1
 822 473 l 1,5,-1
 660 550 l 1,6,-1
 306 547 l 1,0,-1
630 903 m 1,7,-1
 794 981 l 1,8,-1
 794 1020 l 1,9,-1
 632 1097 l 1,10,-1
 311 1094 l 1,11,-1
 309 893 l 1,12,-1
 630 903 l 1,7,-1
950 742 m 1,13,-1
 1125 650 l 1,14,-1
 1125 282 l 1,15,-1
 655 3 l 1,16,-1
 3 9 l 1,17,-1
 9 1432 l 1,18,-1
 3 1439 l 1,19,-1
 633 1441 l 1,20,-1
 1097 1197 l 1,21,-1
 1097 829 l 1,22,-1
 950 742 l 1,13,-1
EndSplineSet
EndChar

StartChar: C
Encoding: 67 67 38
Width: 1225
GlyphClass: 2
Flags: W
LayerCount: 2
Fore
SplineSet
1119 554 m 1,0,-1
 1123 264 l 1,1,-1
 558 -50 l 1,2,-1
 -6 224 l 1,3,-1
 -6 1152 l 1,4,-1
 564 1471 l 1,5,-1
 1111 1157 l 1,6,-1
 1114 921 l 1,7,-1
 816 898 l 1,8,-1
 815 963 l 1,9,-1
 561 1108 l 1,10,-1
 297 960 l 1,11,-1
 297 441 l 1,12,-1
 559 314 l 1,13,-1
 821 460 l 1,14,-1
 820 586 l 1,15,-1
 1119 554 l 1,0,-1
EndSplineSet
EndChar

StartChar: D
Encoding: 68 68 39
Width: 1208
GlyphClass: 2
Flags: W
LayerCount: 2
Fore
SplineSet
536 343 m 1,0,-1
 800 461 l 1,1,-1
 800 980 l 1,2,-1
 538 1097 l 1,3,-1
 311 1094 l 1,4,-1
 314 328 l 1,5,-1
 536 343 l 1,0,-1
539 1441 m 1,6,-1
 1103 1197 l 1,7,-1
 1103 269 l 1,8,-1
 533 -10 l 1,9,-1
 3 -1 l 1,10,-1
 -11 1439 l 1,11,-1
 539 1441 l 1,6,-1
EndSplineSet
EndChar

StartChar: E
Encoding: 69 69 40
Width: 1117
GlyphClass: 2
Flags: W
LayerCount: 2
Fore
SplineSet
6 -19 m 1,0,-1
 -1 1425 l 1,1,-1
 1006 1435 l 1,2,-1
 1023 1113 l 1,3,-1
 316 1106 l 1,4,-1
 313 865 l 1,5,-1
 996 864 l 1,6,-1
 984 534 l 1,7,-1
 309 534 l 1,8,-1
 306 298 l 1,9,-1
 1014 316 l 1,10,-1
 997 9 l 1,11,-1
 6 -19 l 1,0,-1
EndSplineSet
EndChar

StartChar: F
Encoding: 70 70 41
Width: 1117
GlyphClass: 2
Flags: W
LayerCount: 2
Fore
SplineSet
313 855 m 1,0,-1
 996 854 l 1,1,-1
 984 524 l 1,2,-1
 309 524 l 1,3,-1
 302 -9 l 1,4,-1
 6 -19 l 1,5,-1
 -1 1425 l 1,6,-1
 1026 1435 l 1,7,-1
 1003 1113 l 1,8,-1
 316 1106 l 1,9,-1
 313 855 l 1,0,-1
EndSplineSet
EndChar

StartChar: G
Encoding: 71 71 42
Width: 1225
GlyphClass: 2
Flags: W
LayerCount: 2
Fore
SplineSet
1123 264 m 1,0,-1
 558 -50 l 1,1,-1
 -6 224 l 1,2,-1
 -6 1152 l 1,3,-1
 564 1471 l 1,4,-1
 1101 1217 l 1,5,-1
 1104 981 l 1,6,-1
 806 958 l 1,7,-1
 805 1023 l 1,8,-1
 561 1108 l 1,9,-1
 297 960 l 1,10,-1
 297 441 l 1,11,-1
 559 314 l 1,12,-1
 821 460 l 1,13,-1
 820 533 l 1,14,-1
 445 556 l 1,15,-1
 453 862 l 1,16,-1
 1104 835 l 1,17,-1
 1123 264 l 1,0,-1
EndSplineSet
EndChar

StartChar: H
Encoding: 72 72 43
Width: 1117
GlyphClass: 2
Flags: W
LayerCount: 2
Fore
SplineSet
309 533 m 1,0,-1
 302 -9 l 1,1,-1
 6 -19 l 1,2,-1
 -1 1425 l 1,3,-1
 321 1430 l 1,4,-1
 313 848 l 1,5,-1
 704 864 l 1,6,-1
 704 1413 l 1,7,-1
 1023 1433 l 1,8,-1
 1000 -21 l 1,9,-1
 704 -10 l 1,10,-1
 704 560 l 1,11,-1
 309 533 l 1,0,-1
EndSplineSet
EndChar

StartChar: I
Encoding: 73 73 44
Width: 405
GlyphClass: 2
Flags: W
LayerCount: 2
Fore
SplineSet
9 1439 m 1,0,-1
 313 1411 l 1,1,-1
 302 -26 l 1,2,-1
 3 9 l 1,3,-1
 9 1439 l 1,0,-1
EndSplineSet
EndChar

StartChar: J
Encoding: 74 74 45
Width: 1225
GlyphClass: 2
Flags: W
LayerCount: 2
Fore
SplineSet
-2 554 m 1,0,-1
 297 586 l 1,1,-1
 296 460 l 1,2,-1
 558 314 l 1,3,-1
 820 441 l 1,4,-1
 820 1430 l 1,5,-1
 1123 1442 l 1,6,-1
 1123 224 l 1,7,-1
 559 -50 l 1,8,-1
 -6 264 l 1,9,-1
 -2 554 l 1,0,-1
EndSplineSet
EndChar

StartChar: K
Encoding: 75 75 46
Width: 1034
GlyphClass: 2
Flags: W
LayerCount: 2
Fore
SplineSet
310 577 m 1,0,-1
 302 -9 l 1,1,-1
 6 -19 l 1,2,-1
 -1 1425 l 1,3,-1
 321 1430 l 1,4,-1
 314 882 l 1,5,-1
 392 888 l 1,6,-1
 687 1435 l 1,7,-1
 1049 1435 l 1,8,-1
 648 711 l 1,9,-1
 1049 -14 l 1,10,-1
 687 -14 l 1,11,-1
 366 580 l 1,12,-1
 310 577 l 1,0,-1
EndSplineSet
EndChar

StartChar: L
Encoding: 76 76 47
Width: 1117
GlyphClass: 2
Flags: W
LayerCount: 2
Fore
SplineSet
316 310 m 1,0,-1
 1003 303 l 1,1,-1
 1026 -19 l 1,2,-1
 -1 -9 l 1,3,-1
 6 1435 l 1,4,-1
 302 1425 l 1,5,-1
 316 310 l 1,0,-1
EndSplineSet
EndChar

StartChar: M
Encoding: 77 77 48
Width: 1308
GlyphClass: 2
Flags: W
LayerCount: 2
Fore
SplineSet
505 386 m 1,0,-1
 311 753 l 1,1,-1
 321 -18 l 1,2,-1
 -1 -13 l 1,3,-1
 6 1431 l 1,4,-1
 302 1421 l 1,5,-1
 302 1404 l 1,6,-1
 605 854 l 1,7,-1
 908 1404 l 1,8,-1
 908 1421 l 1,9,-1
 1204 1431 l 1,10,-1
 1211 -13 l 1,11,-1
 889 -18 l 1,12,-1
 899 753 l 1,13,-1
 706 389 l 1,14,-1
 505 386 l 1,0,-1
EndSplineSet
EndChar

StartChar: N
Encoding: 78 78 49
Width: 1117
GlyphClass: 2
Flags: W
LayerCount: 2
Fore
SplineSet
311 753 m 1,0,-1
 321 -18 l 1,1,-1
 -1 -13 l 1,2,-1
 6 1431 l 1,3,-1
 302 1421 l 1,4,-1
 704 673 l 1,5,-1
 704 1422 l 1,6,-1
 1000 1433 l 1,7,-1
 1023 -21 l 1,8,-1
 704 11 l 1,9,-1
 311 753 l 1,0,-1
EndSplineSet
EndChar

StartChar: O
Encoding: 79 79 50
Width: 1225
GlyphClass: 2
Flags: W
LayerCount: 2
Fore
SplineSet
6 264 m 1,0,-1
 -6 1157 l 1,1,-1
 559 1471 l 1,2,-1
 1123 1197 l 1,3,-1
 1123 269 l 1,4,-1
 553 -50 l 1,5,-1
 6 264 l 1,0,-1
302 458 m 1,6,-1
 556 313 l 1,7,-1
 820 461 l 1,8,-1
 820 980 l 1,9,-1
 558 1107 l 1,10,-1
 296 961 l 1,11,-1
 302 458 l 1,6,-1
EndSplineSet
EndChar

StartChar: P
Encoding: 80 80 51
Width: 1208
GlyphClass: 2
Flags: W
LayerCount: 2
Fore
SplineSet
306 475 m 1,0,-1
 302 -26 l 1,1,-1
 -17 9 l 1,2,-1
 -11 1439 l 1,3,-1
 639 1441 l 1,4,-1
 1103 1197 l 1,5,-1
 1103 749 l 1,6,-1
 633 470 l 1,7,-1
 306 475 l 1,0,-1
308 809 m 1,8,-1
 636 823 l 1,9,-1
 800 941 l 1,10,-1
 800 980 l 1,11,-1
 638 1097 l 1,12,-1
 311 1094 l 1,13,-1
 308 809 l 1,8,-1
EndSplineSet
EndChar

StartChar: Q
Encoding: 81 81 52
Width: 1225
GlyphClass: 2
Flags: W
LayerCount: 2
Fore
SplineSet
820 494 m 1,0,-1
 820 980 l 1,1,-1
 558 1107 l 1,2,-1
 296 961 l 1,3,-1
 302 458 l 1,4,-1
 527 330 l 1,5,-1
 376 510 l 1,6,-1
 661 710 l 1,7,-1
 820 494 l 1,0,-1
751 61 m 1,8,-1
 553 -50 l 1,9,-1
 6 264 l 1,10,-1
 -6 1157 l 1,11,-1
 559 1471 l 1,12,-1
 1123 1197 l 1,13,-1
 1123 269 l 1,14,-1
 1026 215 l 1,15,-1
 1128 77 l 1,16,-1
 872 -83 l 1,17,-1
 751 61 l 1,8,-1
EndSplineSet
EndChar

StartChar: R
Encoding: 82 82 53
Width: 1208
GlyphClass: 2
Flags: W
LayerCount: 2
Fore
SplineSet
308 809 m 1,0,-1
 636 823 l 1,1,-1
 800 941 l 1,2,-1
 800 980 l 1,3,-1
 638 1097 l 1,4,-1
 311 1094 l 1,5,-1
 308 809 l 1,0,-1
306 475 m 1,6,-1
 302 -26 l 1,7,-1
 -17 9 l 1,8,-1
 -11 1439 l 1,9,-1
 639 1441 l 1,10,-1
 1103 1197 l 1,11,-1
 1103 749 l 1,12,-1
 759 545 l 1,13,-1
 1185 -3 l 1,14,-1
 779 -3 l 1,15,-1
 407 473 l 1,16,-1
 306 475 l 1,6,-1
EndSplineSet
EndChar

StartChar: S
Encoding: 83 83 54
Width: 1225
GlyphClass: 2
Flags: W
LayerCount: 2
Fore
SplineSet
11 687 m 1,0,-1
 -6 1152 l 1,1,-1
 564 1471 l 1,2,-1
 1111 1157 l 1,3,-1
 1114 921 l 1,4,-1
 816 908 l 1,5,-1
 815 973 l 1,6,-1
 561 1108 l 1,7,-1
 297 952 l 1,8,-1
 1123 723 l 1,9,-1
 1123 224 l 1,10,-1
 559 -50 l 1,11,-1
 -6 264 l 1,12,-1
 -2 554 l 1,13,-1
 297 536 l 1,14,-1
 296 460 l 1,15,-1
 558 314 l 1,16,-1
 820 441 l 1,17,-1
 820 506 l 1,18,-1
 11 687 l 1,0,-1
EndSplineSet
EndChar

StartChar: T
Encoding: 84 84 55
Width: 1117
GlyphClass: 2
Flags: W
LayerCount: 2
Fore
SplineSet
348 1101 m 1,0,-1
 1 1094 l 1,1,-1
 -1 1425 l 1,2,-1
 1026 1435 l 1,3,-1
 1003 1113 l 1,4,-1
 672 1107 l 1,5,-1
 649 -1 l 1,6,-1
 353 -11 l 1,7,-1
 348 1101 l 1,0,-1
EndSplineSet
EndChar

StartChar: U
Encoding: 85 85 56
Width: 1225
GlyphClass: 2
Flags: W
LayerCount: 2
Fore
SplineSet
297 1429 m 1,0,-1
 302 458 l 1,1,-1
 556 313 l 1,2,-1
 820 461 l 1,3,-1
 820 1417 l 1,4,-1
 1123 1442 l 1,5,-1
 1123 269 l 1,6,-1
 553 -50 l 1,7,-1
 6 264 l 1,8,-1
 -2 1414 l 1,9,-1
 297 1429 l 1,0,-1
EndSplineSet
EndChar

StartChar: V
Encoding: 86 86 57
Width: 1168
GlyphClass: 2
Flags: W
LayerCount: 2
Fore
SplineSet
528 412 m 1,0,-1
 860 1451 l 1,1,-1
 1185 1437 l 1,2,-1
 716 -16 l 1,3,-1
 353 -14 l 1,4,-1
 -87 1429 l 1,5,-1
 232 1446 l 1,6,-1
 528 412 l 1,0,-1
EndSplineSet
EndChar

StartChar: W
Encoding: 87 87 58
Width: 1676
GlyphClass: 2
Flags: W
LayerCount: 2
Fore
SplineSet
787 203 m 1,0,-1
 716 -16 l 1,1,-1
 353 -14 l 1,2,-1
 -87 1429 l 1,3,-1
 232 1446 l 1,4,-1
 528 412 l 1,5,-1
 628 724 l 1,6,-1
 413 1429 l 1,7,-1
 732 1446 l 1,8,-1
 792 1237 l 1,9,-1
 860 1451 l 1,10,-1
 1185 1437 l 1,11,-1
 946 697 l 1,12,-1
 1028 412 l 1,13,-1
 1360 1451 l 1,14,-1
 1685 1437 l 1,15,-1
 1216 -16 l 1,16,-1
 853 -14 l 1,17,-1
 787 203 l 1,0,-1
EndSplineSet
EndChar

StartChar: X
Encoding: 88 88 59
Width: 1049
GlyphClass: 2
Flags: W
LayerCount: 2
Fore
SplineSet
648 711 m 1,0,-1
 1049 -14 l 1,1,-1
 687 -14 l 1,2,-1
 469 389 l 1,3,-1
 246 -14 l 1,4,-1
 -94 -13 l 1,5,-1
 296 711 l 1,6,-1
 -94 1434 l 1,7,-1
 246 1435 l 1,8,-1
 469 1032 l 1,9,-1
 687 1435 l 1,10,-1
 1049 1435 l 1,11,-1
 648 711 l 1,0,-1
EndSplineSet
EndChar

StartChar: Y
Encoding: 89 89 60
Width: 1049
GlyphClass: 2
Flags: W
LayerCount: 2
Fore
SplineSet
635 688 m 1,0,-1
 627 -26 l 1,1,-1
 328 9 l 1,2,-1
 332 644 l 1,3,-1
 -94 1434 l 1,4,-1
 246 1435 l 1,5,-1
 469 1032 l 1,6,-1
 687 1435 l 1,7,-1
 1049 1435 l 1,8,-1
 635 688 l 1,0,-1
EndSplineSet
EndChar

StartChar: Z
Encoding: 90 90 61
Width: 1049
GlyphClass: 2
Flags: W
LayerCount: 2
Fore
SplineSet
531 1116 m 1,0,-1
 -11 1109 l 1,1,-1
 -5 1428 l 1,2,-1
 1049 1435 l 1,3,-1
 413 288 l 1,4,-1
 934 323 l 1,5,-1
 928 4 l 1,6,-1
 -94 -13 l 1,7,-1
 531 1116 l 1,0,-1
EndSplineSet
EndChar

StartChar: bracketleft
Encoding: 91 91 62
Width: 607
GlyphClass: 2
Flags: W
LayerCount: 2
Fore
SplineSet
6 -119 m 1,0,-1
 -1 1525 l 1,1,-1
 506 1535 l 1,2,-1
 523 1213 l 1,3,-1
 316 1206 l 1,4,-1
 306 198 l 1,5,-1
 514 216 l 1,6,-1
 497 -91 l 1,7,-1
 6 -119 l 1,0,-1
EndSplineSet
EndChar

StartChar: backslash
Encoding: 92 92 63
Width: 1049
GlyphClass: 2
Flags: W
LayerCount: 2
Fore
SplineSet
687 -14 m 1,0,-1
 -94 1434 l 1,1,-1
 246 1435 l 1,2,-1
 1049 -14 l 1,3,-1
 687 -14 l 1,0,-1
EndSplineSet
EndChar

StartChar: bracketright
Encoding: 93 93 64
Width: 607
GlyphClass: 2
Flags: W
LayerCount: 2
Fore
SplineSet
516 1535 m 1,0,-1
 523 -109 l 1,1,-1
 16 -119 l 1,2,-1
 -1 203 l 1,3,-1
 206 210 l 1,4,-1
 216 1218 l 1,5,-1
 8 1200 l 1,6,-1
 25 1507 l 1,7,-1
 516 1535 l 1,0,-1
EndSplineSet
EndChar

StartChar: asciicircum
Encoding: 94 94 65
Width: 405
GlyphClass: 2
Flags: W
LayerCount: 2
Fore
SplineSet
9 1439 m 1,0,-1
 313 1411 l 1,1,-1
 302 874 l 1,2,-1
 3 909 l 1,3,-1
 9 1439 l 1,0,-1
EndSplineSet
EndChar

StartChar: underscore
Encoding: 95 95 66
Width: 1117
GlyphClass: 2
Flags: W
LayerCount: 2
Fore
SplineSet
6 -19 m 1,0,-1
 9 286 l 1,1,-1
 1014 316 l 1,2,-1
 997 9 l 1,3,-1
 6 -19 l 1,0,-1
EndSplineSet
EndChar

StartChar: grave
Encoding: 96 96 67
Width: 405
GlyphClass: 2
Flags: W
LayerCount: 2
Fore
SplineSet
9 1439 m 1,0,-1
 313 1411 l 1,1,-1
 302 874 l 1,2,-1
 3 909 l 1,3,-1
 9 1439 l 1,0,-1
EndSplineSet
EndChar

StartChar: a
Encoding: 97 97 68
Width: 1168
GlyphClass: 2
Flags: W
LayerCount: 2
Fore
SplineSet
330 303 m 1,0,-1
 228 -16 l 1,1,-1
 -97 -2 l 1,2,-1
 372 1451 l 1,3,-1
 735 1449 l 1,4,-1
 1175 6 l 1,5,-1
 856 -11 l 1,6,-1
 758 332 l 1,7,-1
 330 303 l 1,0,-1
432 622 m 1,8,-1
 672 632 l 1,9,-1
 560 1023 l 1,10,-1
 432 622 l 1,8,-1
EndSplineSet
EndChar

StartChar: b
Encoding: 98 98 69
Width: 1208
GlyphClass: 2
Flags: W
LayerCount: 2
Fore
SplineSet
306 547 m 1,0,-1
 305 340 l 1,1,-1
 306 341 l 1,2,-1
 658 356 l 1,3,-1
 822 434 l 1,4,-1
 822 473 l 1,5,-1
 660 550 l 1,6,-1
 306 547 l 1,0,-1
630 903 m 1,7,-1
 794 981 l 1,8,-1
 794 1020 l 1,9,-1
 632 1097 l 1,10,-1
 311 1094 l 1,11,-1
 309 893 l 1,12,-1
 630 903 l 1,7,-1
950 742 m 1,13,-1
 1125 650 l 1,14,-1
 1125 282 l 1,15,-1
 655 3 l 1,16,-1
 3 9 l 1,17,-1
 9 1432 l 1,18,-1
 3 1439 l 1,19,-1
 633 1441 l 1,20,-1
 1097 1197 l 1,21,-1
 1097 829 l 1,22,-1
 950 742 l 1,13,-1
EndSplineSet
EndChar

StartChar: c
Encoding: 99 99 70
Width: 1225
GlyphClass: 2
Flags: W
LayerCount: 2
Fore
SplineSet
1119 554 m 1,0,-1
 1123 264 l 1,1,-1
 558 -50 l 1,2,-1
 -6 224 l 1,3,-1
 -6 1152 l 1,4,-1
 564 1471 l 1,5,-1
 1111 1157 l 1,6,-1
 1114 921 l 1,7,-1
 816 898 l 1,8,-1
 815 963 l 1,9,-1
 561 1108 l 1,10,-1
 297 960 l 1,11,-1
 297 441 l 1,12,-1
 559 314 l 1,13,-1
 821 460 l 1,14,-1
 820 586 l 1,15,-1
 1119 554 l 1,0,-1
EndSplineSet
EndChar

StartChar: d
Encoding: 100 100 71
Width: 1208
GlyphClass: 2
Flags: W
LayerCount: 2
Fore
SplineSet
536 343 m 1,0,-1
 800 461 l 1,1,-1
 800 980 l 1,2,-1
 538 1097 l 1,3,-1
 311 1094 l 1,4,-1
 314 328 l 1,5,-1
 536 343 l 1,0,-1
539 1441 m 1,6,-1
 1103 1197 l 1,7,-1
 1103 269 l 1,8,-1
 533 -10 l 1,9,-1
 3 -1 l 1,10,-1
 -11 1439 l 1,11,-1
 539 1441 l 1,6,-1
EndSplineSet
EndChar

StartChar: e
Encoding: 101 101 72
Width: 1117
GlyphClass: 2
Flags: W
LayerCount: 2
Fore
SplineSet
6 -19 m 1,0,-1
 -1 1425 l 1,1,-1
 1006 1435 l 1,2,-1
 1023 1113 l 1,3,-1
 316 1106 l 1,4,-1
 313 865 l 1,5,-1
 996 864 l 1,6,-1
 984 534 l 1,7,-1
 309 534 l 1,8,-1
 306 298 l 1,9,-1
 1014 316 l 1,10,-1
 997 9 l 1,11,-1
 6 -19 l 1,0,-1
EndSplineSet
EndChar

StartChar: f
Encoding: 102 102 73
Width: 1117
GlyphClass: 2
Flags: W
LayerCount: 2
Fore
SplineSet
313 855 m 1,0,-1
 996 854 l 1,1,-1
 984 524 l 1,2,-1
 309 524 l 1,3,-1
 302 -9 l 1,4,-1
 6 -19 l 1,5,-1
 -1 1425 l 1,6,-1
 1026 1435 l 1,7,-1
 1003 1113 l 1,8,-1
 316 1106 l 1,9,-1
 313 855 l 1,0,-1
EndSplineSet
EndChar

StartChar: g
Encoding: 103 103 74
Width: 1225
GlyphClass: 2
Flags: W
LayerCount: 2
Fore
SplineSet
1123 264 m 1,0,-1
 558 -50 l 1,1,-1
 -6 224 l 1,2,-1
 -6 1152 l 1,3,-1
 564 1471 l 1,4,-1
 1101 1217 l 1,5,-1
 1104 981 l 1,6,-1
 806 958 l 1,7,-1
 805 1023 l 1,8,-1
 561 1108 l 1,9,-1
 297 960 l 1,10,-1
 297 441 l 1,11,-1
 559 314 l 1,12,-1
 821 460 l 1,13,-1
 820 533 l 1,14,-1
 445 556 l 1,15,-1
 453 862 l 1,16,-1
 1104 835 l 1,17,-1
 1123 264 l 1,0,-1
EndSplineSet
EndChar

StartChar: h
Encoding: 104 104 75
Width: 1117
GlyphClass: 2
Flags: W
LayerCount: 2
Fore
SplineSet
309 533 m 1,0,-1
 302 -9 l 1,1,-1
 6 -19 l 1,2,-1
 -1 1425 l 1,3,-1
 321 1430 l 1,4,-1
 313 848 l 1,5,-1
 704 864 l 1,6,-1
 704 1413 l 1,7,-1
 1023 1433 l 1,8,-1
 1000 -21 l 1,9,-1
 704 -10 l 1,10,-1
 704 560 l 1,11,-1
 309 533 l 1,0,-1
EndSplineSet
EndChar

StartChar: i
Encoding: 105 105 76
Width: 405
GlyphClass: 2
Flags: W
LayerCount: 2
Fore
SplineSet
9 1439 m 1,0,-1
 313 1411 l 1,1,-1
 302 -26 l 1,2,-1
 3 9 l 1,3,-1
 9 1439 l 1,0,-1
EndSplineSet
EndChar

StartChar: j
Encoding: 106 106 77
Width: 1225
GlyphClass: 2
Flags: W
LayerCount: 2
Fore
SplineSet
-2 554 m 1,0,-1
 297 586 l 1,1,-1
 296 460 l 1,2,-1
 558 314 l 1,3,-1
 820 441 l 1,4,-1
 820 1430 l 1,5,-1
 1123 1442 l 1,6,-1
 1123 224 l 1,7,-1
 559 -50 l 1,8,-1
 -6 264 l 1,9,-1
 -2 554 l 1,0,-1
EndSplineSet
EndChar

StartChar: k
Encoding: 107 107 78
Width: 1034
GlyphClass: 2
Flags: W
LayerCount: 2
Fore
SplineSet
310 577 m 1,0,-1
 302 -9 l 1,1,-1
 6 -19 l 1,2,-1
 -1 1425 l 1,3,-1
 321 1430 l 1,4,-1
 314 882 l 1,5,-1
 392 888 l 1,6,-1
 687 1435 l 1,7,-1
 1049 1435 l 1,8,-1
 648 711 l 1,9,-1
 1049 -14 l 1,10,-1
 687 -14 l 1,11,-1
 366 580 l 1,12,-1
 310 577 l 1,0,-1
EndSplineSet
EndChar

StartChar: l
Encoding: 108 108 79
Width: 1117
GlyphClass: 2
Flags: W
LayerCount: 2
Fore
SplineSet
316 310 m 1,0,-1
 1003 303 l 1,1,-1
 1026 -19 l 1,2,-1
 -1 -9 l 1,3,-1
 6 1435 l 1,4,-1
 302 1425 l 1,5,-1
 316 310 l 1,0,-1
EndSplineSet
EndChar

StartChar: m
Encoding: 109 109 80
Width: 1308
GlyphClass: 2
Flags: W
LayerCount: 2
Fore
SplineSet
505 386 m 1,0,-1
 311 753 l 1,1,-1
 321 -18 l 1,2,-1
 -1 -13 l 1,3,-1
 6 1431 l 1,4,-1
 302 1421 l 1,5,-1
 302 1404 l 1,6,-1
 605 854 l 1,7,-1
 908 1404 l 1,8,-1
 908 1421 l 1,9,-1
 1204 1431 l 1,10,-1
 1211 -13 l 1,11,-1
 889 -18 l 1,12,-1
 899 753 l 1,13,-1
 706 389 l 1,14,-1
 505 386 l 1,0,-1
EndSplineSet
EndChar

StartChar: n
Encoding: 110 110 81
Width: 1117
GlyphClass: 2
Flags: W
LayerCount: 2
Fore
SplineSet
311 753 m 1,0,-1
 321 -18 l 1,1,-1
 -1 -13 l 1,2,-1
 6 1431 l 1,3,-1
 302 1421 l 1,4,-1
 704 673 l 1,5,-1
 704 1422 l 1,6,-1
 1000 1433 l 1,7,-1
 1023 -21 l 1,8,-1
 704 11 l 1,9,-1
 311 753 l 1,0,-1
EndSplineSet
EndChar

StartChar: o
Encoding: 111 111 82
Width: 1225
GlyphClass: 2
Flags: W
LayerCount: 2
Fore
SplineSet
6 264 m 1,0,-1
 -6 1157 l 1,1,-1
 559 1471 l 1,2,-1
 1123 1197 l 1,3,-1
 1123 269 l 1,4,-1
 553 -50 l 1,5,-1
 6 264 l 1,0,-1
302 458 m 1,6,-1
 556 313 l 1,7,-1
 820 461 l 1,8,-1
 820 980 l 1,9,-1
 558 1107 l 1,10,-1
 296 961 l 1,11,-1
 302 458 l 1,6,-1
EndSplineSet
EndChar

StartChar: p
Encoding: 112 112 83
Width: 1208
GlyphClass: 2
Flags: W
LayerCount: 2
Fore
SplineSet
306 475 m 1,0,-1
 302 -26 l 1,1,-1
 -17 9 l 1,2,-1
 -11 1439 l 1,3,-1
 639 1441 l 1,4,-1
 1103 1197 l 1,5,-1
 1103 749 l 1,6,-1
 633 470 l 1,7,-1
 306 475 l 1,0,-1
308 809 m 1,8,-1
 636 823 l 1,9,-1
 800 941 l 1,10,-1
 800 980 l 1,11,-1
 638 1097 l 1,12,-1
 311 1094 l 1,13,-1
 308 809 l 1,8,-1
EndSplineSet
EndChar

StartChar: q
Encoding: 113 113 84
Width: 1225
GlyphClass: 2
Flags: W
LayerCount: 2
Fore
SplineSet
820 494 m 1,0,-1
 820 980 l 1,1,-1
 558 1107 l 1,2,-1
 296 961 l 1,3,-1
 302 458 l 1,4,-1
 527 330 l 1,5,-1
 376 510 l 1,6,-1
 661 710 l 1,7,-1
 820 494 l 1,0,-1
751 61 m 1,8,-1
 553 -50 l 1,9,-1
 6 264 l 1,10,-1
 -6 1157 l 1,11,-1
 559 1471 l 1,12,-1
 1123 1197 l 1,13,-1
 1123 269 l 1,14,-1
 1026 215 l 1,15,-1
 1128 77 l 1,16,-1
 872 -83 l 1,17,-1
 751 61 l 1,8,-1
EndSplineSet
EndChar

StartChar: r
Encoding: 114 114 85
Width: 1208
GlyphClass: 2
Flags: W
LayerCount: 2
Fore
SplineSet
308 809 m 1,0,-1
 636 823 l 1,1,-1
 800 941 l 1,2,-1
 800 980 l 1,3,-1
 638 1097 l 1,4,-1
 311 1094 l 1,5,-1
 308 809 l 1,0,-1
306 475 m 1,6,-1
 302 -26 l 1,7,-1
 -17 9 l 1,8,-1
 -11 1439 l 1,9,-1
 639 1441 l 1,10,-1
 1103 1197 l 1,11,-1
 1103 749 l 1,12,-1
 759 545 l 1,13,-1
 1185 -3 l 1,14,-1
 779 -3 l 1,15,-1
 407 473 l 1,16,-1
 306 475 l 1,6,-1
EndSplineSet
EndChar

StartChar: s
Encoding: 115 115 86
Width: 1225
GlyphClass: 2
Flags: W
LayerCount: 2
Fore
SplineSet
11 687 m 1,0,-1
 -6 1152 l 1,1,-1
 564 1471 l 1,2,-1
 1111 1157 l 1,3,-1
 1114 921 l 1,4,-1
 816 908 l 1,5,-1
 815 973 l 1,6,-1
 561 1108 l 1,7,-1
 297 952 l 1,8,-1
 1123 723 l 1,9,-1
 1123 224 l 1,10,-1
 559 -50 l 1,11,-1
 -6 264 l 1,12,-1
 -2 554 l 1,13,-1
 297 536 l 1,14,-1
 296 460 l 1,15,-1
 558 314 l 1,16,-1
 820 441 l 1,17,-1
 820 506 l 1,18,-1
 11 687 l 1,0,-1
EndSplineSet
EndChar

StartChar: t
Encoding: 116 116 87
Width: 1117
GlyphClass: 2
Flags: W
LayerCount: 2
Fore
SplineSet
348 1101 m 1,0,-1
 1 1094 l 1,1,-1
 -1 1425 l 1,2,-1
 1026 1435 l 1,3,-1
 1003 1113 l 1,4,-1
 672 1107 l 1,5,-1
 649 -1 l 1,6,-1
 353 -11 l 1,7,-1
 348 1101 l 1,0,-1
EndSplineSet
EndChar

StartChar: u
Encoding: 117 117 88
Width: 1225
GlyphClass: 2
Flags: W
LayerCount: 2
Fore
SplineSet
297 1429 m 1,0,-1
 302 458 l 1,1,-1
 556 313 l 1,2,-1
 820 461 l 1,3,-1
 820 1417 l 1,4,-1
 1123 1442 l 1,5,-1
 1123 269 l 1,6,-1
 553 -50 l 1,7,-1
 6 264 l 1,8,-1
 -2 1414 l 1,9,-1
 297 1429 l 1,0,-1
EndSplineSet
EndChar

StartChar: v
Encoding: 118 118 89
Width: 1168
GlyphClass: 2
Flags: W
LayerCount: 2
Fore
SplineSet
528 412 m 1,0,-1
 860 1451 l 1,1,-1
 1185 1437 l 1,2,-1
 716 -16 l 1,3,-1
 353 -14 l 1,4,-1
 -87 1429 l 1,5,-1
 232 1446 l 1,6,-1
 528 412 l 1,0,-1
EndSplineSet
EndChar

StartChar: w
Encoding: 119 119 90
Width: 1676
GlyphClass: 2
Flags: W
LayerCount: 2
Fore
SplineSet
787 203 m 1,0,-1
 716 -16 l 1,1,-1
 353 -14 l 1,2,-1
 -87 1429 l 1,3,-1
 232 1446 l 1,4,-1
 528 412 l 1,5,-1
 628 724 l 1,6,-1
 413 1429 l 1,7,-1
 732 1446 l 1,8,-1
 792 1237 l 1,9,-1
 860 1451 l 1,10,-1
 1185 1437 l 1,11,-1
 946 697 l 1,12,-1
 1028 412 l 1,13,-1
 1360 1451 l 1,14,-1
 1685 1437 l 1,15,-1
 1216 -16 l 1,16,-1
 853 -14 l 1,17,-1
 787 203 l 1,0,-1
EndSplineSet
EndChar

StartChar: x
Encoding: 120 120 91
Width: 1049
GlyphClass: 2
Flags: W
LayerCount: 2
Fore
SplineSet
648 711 m 1,0,-1
 1049 -14 l 1,1,-1
 687 -14 l 1,2,-1
 469 389 l 1,3,-1
 246 -14 l 1,4,-1
 -94 -13 l 1,5,-1
 296 711 l 1,6,-1
 -94 1434 l 1,7,-1
 246 1435 l 1,8,-1
 469 1032 l 1,9,-1
 687 1435 l 1,10,-1
 1049 1435 l 1,11,-1
 648 711 l 1,0,-1
EndSplineSet
EndChar

StartChar: y
Encoding: 121 121 92
Width: 1049
GlyphClass: 2
Flags: W
LayerCount: 2
Fore
SplineSet
635 688 m 1,0,-1
 627 -26 l 1,1,-1
 328 9 l 1,2,-1
 332 644 l 1,3,-1
 -94 1434 l 1,4,-1
 246 1435 l 1,5,-1
 469 1032 l 1,6,-1
 687 1435 l 1,7,-1
 1049 1435 l 1,8,-1
 635 688 l 1,0,-1
EndSplineSet
EndChar

StartChar: z
Encoding: 122 122 93
Width: 1049
GlyphClass: 2
Flags: W
LayerCount: 2
Fore
SplineSet
531 1116 m 1,0,-1
 -11 1109 l 1,1,-1
 -5 1428 l 1,2,-1
 1049 1435 l 1,3,-1
 413 288 l 1,4,-1
 934 323 l 1,5,-1
 928 4 l 1,6,-1
 -94 -13 l 1,7,-1
 531 1116 l 1,0,-1
EndSplineSet
EndChar

StartChar: braceleft
Encoding: 123 123 94
Width: 767
GlyphClass: 2
Flags: W
LayerCount: 2
Fore
SplineSet
102 863 m 1,0,-1
 102 1258 l 1,1,-1
 672 1577 l 1,2,-1
 669 1214 l 1,3,-1
 405 1066 l 1,4,-1
 405 347 l 1,5,-1
 667 220 l 1,6,-1
 666 -144 l 1,7,-1
 102 130 l 1,8,-1
 102 550 l 1,9,-1
 3 550 l 1,10,-1
 -7 859 l 1,11,-1
 102 863 l 1,0,-1
EndSplineSet
EndChar

StartChar: bar
Encoding: 124 124 95
Width: 405
GlyphClass: 2
Flags: W
LayerCount: 2
Fore
SplineSet
9 1439 m 1,0,-1
 313 1411 l 1,1,-1
 302 -26 l 1,2,-1
 3 9 l 1,3,-1
 9 1439 l 1,0,-1
EndSplineSet
EndChar

StartChar: braceright
Encoding: 125 125 96
Width: 767
GlyphClass: 2
Flags: W
LayerCount: 2
Fore
SplineSet
563 863 m 1,0,-1
 672 859 l 1,1,-1
 662 550 l 1,2,-1
 563 550 l 1,3,-1
 563 130 l 1,4,-1
 -1 -144 l 1,5,-1
 -2 220 l 1,6,-1
 260 347 l 1,7,-1
 260 1066 l 1,8,-1
 -4 1214 l 1,9,-1
 -7 1577 l 1,10,-1
 563 1258 l 1,11,-1
 563 863 l 1,0,-1
EndSplineSet
EndChar

StartChar: asciitilde
Encoding: 126 126 97
Width: 778
GlyphClass: 2
Flags: W
LayerCount: 2
Fore
SplineSet
1 835 m 1,0,-1
 696 864 l 1,1,-1
 673 562 l 1,2,-1
 -5 516 l 1,3,-1
 1 835 l 1,0,-1
EndSplineSet
EndChar
